<svg width="32" height="32" viewBox="0 0 32 32" fill="none" xmlns="http://www.w3.org/2000/svg">
<rect width="32" height="32" rx="5" fill="white"/>
<path d="M3.20206 24.5V7.04545H6.36399V21.8494H14.0515V24.5H3.20206ZM16.7958 24.5V7.04545H23.3413C24.6822 7.04545 25.8072 7.29545 26.7163 7.79545C27.631 8.29545 28.3214 8.98295 28.7873 9.85795C29.2589 10.7273 29.4947 11.7159 29.4947 12.8239C29.4947 13.9432 29.2589 14.9375 28.7873 15.8068C28.3157 16.6761 27.6197 17.3608 26.6992 17.8608C25.7788 18.3551 24.6452 18.6023 23.2987 18.6023H18.9606V16.0028H22.8725C23.6566 16.0028 24.2987 15.8665 24.7987 15.5938C25.2987 15.321 25.668 14.946 25.9066 14.4688C26.1509 13.9915 26.2731 13.4432 26.2731 12.8239C26.2731 12.2045 26.1509 11.6591 25.9066 11.1875C25.668 10.7159 25.2958 10.3494 24.7901 10.0881C24.2901 9.82102 23.6452 9.6875 22.8555 9.6875H19.9577V24.5H16.7958Z" fill="#876BDE"/>
</svg>
