<svg width="489" height="120" viewBox="0 0 489 120" fill="none" xmlns="http://www.w3.org/2000/svg">
<path d="M126.52 89V33H136.92V80.2H166.2V89H126.52ZM193.14 89.56C188.393 89.56 184.233 88.6267 180.66 86.76C177.14 84.84 174.393 82.2267 172.42 78.92C170.5 75.6133 169.54 71.8533 169.54 67.64C169.54 63.3733 170.473 59.6133 172.34 56.36C174.26 53.0533 176.873 50.4667 180.18 48.6C183.54 46.7333 187.353 45.8 191.62 45.8C195.78 45.8 199.487 46.7067 202.74 48.52C205.993 50.3333 208.553 52.8933 210.42 56.2C212.287 59.5067 213.22 63.4 213.22 67.88C213.22 68.3067 213.193 68.7867 213.14 69.32C213.14 69.8533 213.113 70.36 213.06 70.84H177.46V64.2H207.78L203.86 66.28C203.913 63.8267 203.407 61.6667 202.34 59.8C201.273 57.9333 199.807 56.4667 197.94 55.4C196.127 54.3333 194.02 53.8 191.62 53.8C189.167 53.8 187.007 54.3333 185.14 55.4C183.327 56.4667 181.887 57.96 180.82 59.88C179.807 61.7467 179.3 63.96 179.3 66.52V68.12C179.3 70.68 179.887 72.9467 181.06 74.92C182.233 76.8933 183.887 78.4133 186.02 79.48C188.153 80.5467 190.607 81.08 193.38 81.08C195.78 81.08 197.94 80.7067 199.86 79.96C201.78 79.2133 203.487 78.04 204.98 76.44L210.34 82.6C208.42 84.84 205.993 86.5733 203.06 87.8C200.18 88.9733 196.873 89.56 193.14 89.56ZM247.974 89V80.36L247.414 78.52V63.4C247.414 60.4667 246.534 58.2 244.774 56.6C243.014 54.9467 240.347 54.12 236.774 54.12C234.374 54.12 232 54.4933 229.654 55.24C227.36 55.9867 225.414 57.0267 223.814 58.36L219.894 51.08C222.187 49.32 224.907 48.0133 228.054 47.16C231.254 46.2533 234.56 45.8 237.974 45.8C244.16 45.8 248.934 47.2933 252.294 50.28C255.707 53.2133 257.414 57.7733 257.414 63.96V89H247.974ZM234.534 89.56C231.334 89.56 228.534 89.0267 226.134 87.96C223.734 86.84 221.867 85.32 220.534 83.4C219.254 81.4267 218.614 79.2133 218.614 76.76C218.614 74.36 219.174 72.2 220.294 70.28C221.467 68.36 223.36 66.84 225.974 65.72C228.587 64.6 232.054 64.04 236.374 64.04H248.774V70.68H237.094C233.68 70.68 231.387 71.24 230.214 72.36C229.04 73.4267 228.454 74.76 228.454 76.36C228.454 78.1733 229.174 79.6133 230.614 80.68C232.054 81.7467 234.054 82.28 236.614 82.28C239.067 82.28 241.254 81.72 243.174 80.6C245.147 79.48 246.56 77.8267 247.414 75.64L249.094 81.64C248.134 84.1467 246.4 86.0933 243.894 87.48C241.44 88.8667 238.32 89.56 234.534 89.56ZM288.406 89.56C284.299 89.56 280.592 88.6533 277.286 86.84C274.032 84.9733 271.472 82.4133 269.606 79.16C267.739 75.9067 266.806 72.0667 266.806 67.64C266.806 63.2133 267.739 59.3733 269.606 56.12C271.472 52.8667 274.032 50.3333 277.286 48.52C280.592 46.7067 284.299 45.8 288.406 45.8C291.979 45.8 295.179 46.6 298.006 48.2C300.832 49.7467 303.072 52.12 304.726 55.32C306.379 58.52 307.206 62.6267 307.206 67.64C307.206 72.6 306.406 76.7067 304.806 79.96C303.206 83.16 300.992 85.56 298.166 87.16C295.339 88.76 292.086 89.56 288.406 89.56ZM289.606 81C292.006 81 294.139 80.4667 296.006 79.4C297.926 78.3333 299.446 76.7867 300.566 74.76C301.739 72.7333 302.326 70.36 302.326 67.64C302.326 64.8667 301.739 62.4933 300.566 60.52C299.446 58.4933 297.926 56.9467 296.006 55.88C294.139 54.8133 292.006 54.28 289.606 54.28C287.206 54.28 285.046 54.8133 283.126 55.88C281.259 56.9467 279.739 58.4933 278.566 60.52C277.446 62.4933 276.886 64.8667 276.886 67.64C276.886 70.36 277.446 72.7333 278.566 74.76C279.739 76.7867 281.259 78.3333 283.126 79.4C285.046 80.4667 287.206 81 289.606 81ZM302.566 89V78.92L302.966 67.56L302.166 56.2V29.64H312.086V89H302.566ZM338.448 89.56C334.874 89.56 331.434 89.1067 328.128 88.2C324.874 87.24 322.288 86.0933 320.368 84.76L324.208 77.16C326.128 78.3867 328.421 79.4 331.088 80.2C333.754 81 336.421 81.4 339.088 81.4C342.234 81.4 344.501 80.9733 345.888 80.12C347.328 79.2667 348.048 78.12 348.048 76.68C348.048 75.5067 347.568 74.6267 346.608 74.04C345.648 73.4 344.394 72.92 342.848 72.6C341.301 72.28 339.568 71.9867 337.648 71.72C335.781 71.4533 333.888 71.1067 331.968 70.68C330.101 70.2 328.394 69.5333 326.848 68.68C325.301 67.7733 324.048 66.5733 323.088 65.08C322.128 63.5867 321.648 61.6133 321.648 59.16C321.648 56.44 322.421 54.0933 323.967 52.12C325.514 50.0933 327.674 48.5467 330.447 47.48C333.274 46.36 336.608 45.8 340.448 45.8C343.328 45.8 346.234 46.12 349.168 46.76C352.101 47.4 354.528 48.3067 356.448 49.48L352.608 57.08C350.581 55.8533 348.528 55.0267 346.448 54.6C344.421 54.12 342.394 53.88 340.368 53.88C337.328 53.88 335.061 54.3333 333.568 55.24C332.128 56.1467 331.408 57.2933 331.408 58.68C331.408 59.96 331.888 60.92 332.848 61.56C333.808 62.2 335.061 62.7067 336.608 63.08C338.154 63.4533 339.861 63.7733 341.728 64.04C343.648 64.2533 345.541 64.6 347.408 65.08C349.274 65.56 350.981 66.2267 352.528 67.08C354.128 67.88 355.408 69.0267 356.368 70.52C357.328 72.0133 357.808 73.96 357.808 76.36C357.808 79.0267 357.008 81.3467 355.408 83.32C353.861 85.2933 351.648 86.84 348.768 87.96C345.888 89.0267 342.448 89.56 338.448 89.56ZM367.379 89V33H390.419C395.379 33 399.619 33.8 403.139 35.4C406.713 37 409.459 39.2933 411.379 42.28C413.299 45.2667 414.259 48.8133 414.259 52.92C414.259 57.0267 413.299 60.5733 411.379 63.56C409.459 66.5467 406.713 68.84 403.139 70.44C399.619 72.04 395.379 72.84 390.419 72.84H373.139L377.779 67.96V89H367.379ZM377.779 69.08L373.139 64.04H389.939C394.526 64.04 397.966 63.08 400.259 61.16C402.606 59.1867 403.779 56.44 403.779 52.92C403.779 49.3467 402.606 46.6 400.259 44.68C397.966 42.76 394.526 41.8 389.939 41.8H373.139L377.779 36.68V69.08ZM449.614 89V80.36L449.054 78.52V63.4C449.054 60.4667 448.174 58.2 446.414 56.6C444.654 54.9467 441.988 54.12 438.414 54.12C436.014 54.12 433.641 54.4933 431.294 55.24C429.001 55.9867 427.054 57.0267 425.454 58.36L421.534 51.08C423.828 49.32 426.548 48.0133 429.694 47.16C432.894 46.2533 436.201 45.8 439.614 45.8C445.801 45.8 450.574 47.2933 453.934 50.28C457.348 53.2133 459.054 57.7733 459.054 63.96V89H449.614ZM436.174 89.56C432.974 89.56 430.174 89.0267 427.774 87.96C425.374 86.84 423.508 85.32 422.174 83.4C420.894 81.4267 420.254 79.2133 420.254 76.76C420.254 74.36 420.814 72.2 421.934 70.28C423.108 68.36 425.001 66.84 427.614 65.72C430.228 64.6 433.694 64.04 438.014 64.04H450.414V70.68H438.734C435.321 70.68 433.028 71.24 431.854 72.36C430.681 73.4267 430.094 74.76 430.094 76.36C430.094 78.1733 430.814 79.6133 432.254 80.68C433.694 81.7467 435.694 82.28 438.254 82.28C440.708 82.28 442.894 81.72 444.814 80.6C446.788 79.48 448.201 77.8267 449.054 75.64L450.734 81.64C449.774 84.1467 448.041 86.0933 445.534 87.48C443.081 88.8667 439.961 89.56 436.174 89.56ZM471.888 89V29.64H481.888V89H471.888Z" fill="black"/>
<path d="M46.6364 24.454C49.7468 24.454 52.7295 23.2186 54.9287 21.0192C57.1279 18.82 58.3634 15.8374 58.3634 12.727C58.3634 9.61663 57.128 6.634 54.9287 4.4348C52.7295 2.23559 49.7468 1 46.6364 1C43.5269 1 40.5434 2.23546 38.3442 4.4348C36.145 6.634 34.9094 9.61663 34.9094 12.727C34.9128 15.8357 36.1499 18.8166 38.3483 21.0158C40.5466 23.2141 43.5276 24.4506 46.6362 24.4538L46.6364 24.454ZM46.6364 2.99698C49.217 2.99698 51.692 4.02181 53.5167 5.8465C55.3415 7.67128 56.3663 10.1465 56.3663 12.7268C56.3663 15.3071 55.3414 17.7824 53.5167 19.6062C51.6919 21.431 49.2168 22.4566 46.6364 22.4566C44.0559 22.4566 41.5817 21.4309 39.757 19.6062C37.9322 17.7823 36.9075 15.3071 36.9075 12.7268C36.91 10.1471 37.9356 7.67379 39.7596 5.84971C41.5843 4.02577 44.057 2.99933 46.6366 2.99677L46.6364 2.99698Z" fill="black" stroke="black"/>
<path d="M86.2443 40.1456H76.388C76.0612 36.2043 73.7683 32.6935 70.2893 30.811C66.811 28.9285 62.618 28.9285 59.1398 30.811C55.6616 32.6935 53.3678 36.2043 53.041 40.1456H31.2138C32.705 36.5252 32.2929 32.401 30.1146 29.1474C27.9362 25.8939 24.279 23.9414 20.3646 23.9414C16.4492 23.9414 12.7921 25.8941 10.6147 29.1474C8.43625 32.4007 8.02431 36.5252 9.51547 40.1456H3.75779C2.24146 40.1414 1.00755 41.3652 1.00006 42.8806V52.7485C0.995885 53.3486 1.194 53.9338 1.5618 54.4077L36.7122 100.977V111.567C36.7147 112.679 37.3851 113.682 38.4125 114.109L49.4924 118.622C49.8276 118.761 50.187 118.833 50.5498 118.833C51.2787 118.833 51.9767 118.543 52.4908 118.026C53.0048 117.509 53.2916 116.81 53.2882 116.081V100.977L88.4215 54.4291C88.7985 53.9502 89.0025 53.3575 89 52.7481V42.8803C88.9925 41.3648 87.7586 40.141 86.2423 40.1452L86.2443 40.1456ZM64.7145 31.3969C67.1237 31.4019 69.4448 32.2988 71.2321 33.9139C73.0185 35.5297 74.1435 37.7491 74.3911 40.1456H55.038C55.2854 37.7491 56.4106 35.5298 58.197 33.9139C59.9841 32.2989 62.3054 31.402 64.7145 31.3969ZM10.6279 35.6917C10.6279 32.2127 12.4836 28.9987 15.4962 27.2591C18.508 25.5196 22.2203 25.5196 25.2329 27.2591C28.2446 28.9987 30.1012 32.2127 30.1012 35.6917C30.1071 37.2415 29.7368 38.7705 29.0204 40.1454H11.708C10.9924 38.7703 10.6213 37.2415 10.628 35.6917H10.6279ZM51.2908 116.082V116.082C51.295 116.335 51.1696 116.572 50.9589 116.713C50.7483 116.853 50.4808 116.876 50.2492 116.775L39.1785 112.266C38.8952 112.149 38.7104 111.874 38.7088 111.568V101.642H51.2909L51.2908 116.082ZM87.0019 52.7491C87.0027 52.9146 86.9475 53.0759 86.8439 53.2055L51.7919 99.644H38.2068L3.13766 53.1841C3.0432 53.0587 2.99389 52.9057 2.99639 52.7494V42.8816C2.99723 42.6826 3.07831 42.4921 3.22042 42.3533C3.36336 42.2145 3.55646 42.1385 3.75624 42.1435H86.2418C86.4416 42.1385 86.6347 42.2145 86.7777 42.3533C86.9198 42.4921 87.0009 42.6826 87.0017 42.8816L87.0019 52.7491Z" fill="black" stroke="black"/>
<path d="M78.4079 52.3369H11.593C11.0413 52.3369 10.5941 52.7841 10.5941 53.3358C10.5941 53.8875 11.0413 54.3339 11.593 54.3339H78.4079C78.9596 54.3339 79.4069 53.8875 79.4069 53.3358C79.4069 52.7841 78.9597 52.3369 78.4079 52.3369Z" fill="black" stroke="black"/>
</svg>
