<svg width="57" height="57" xmlns="http://www.w3.org/2000/svg" xmlns:xlink="http://www.w3.org/1999/xlink" overflow="hidden"><defs><clipPath id="clip0"><rect x="905" y="266" width="57" height="57"/></clipPath></defs><g clip-path="url(#clip0)" transform="translate(-905 -266)"><path d="M957.25 295.094C957.244 297.059 955.653 298.65 953.688 298.656L942.406 298.656C941.452 298.673 940.674 299.425 940.625 300.378 940.684 301.447 942.406 303.584 942.406 311.719 942.406 313.686 940.811 315.281 938.844 315.281 936.876 315.281 935.281 313.686 935.281 311.719 935.281 302.694 924.772 297.587 924.594 297.469L924.594 278.469C928.809 278.469 929.106 273.719 937.062 273.719L947.75 273.719C949.715 273.725 951.307 275.316 951.312 277.281 951.326 278.168 950.984 279.024 950.362 279.656L950.719 279.656C952.684 279.662 954.275 281.254 954.281 283.219 954.29 284.151 953.927 285.049 953.272 285.712 955.185 286.129 956.398 288.016 955.982 289.929 955.828 290.635 955.463 291.276 954.934 291.769 956.338 292.268 957.268 293.604 957.25 295.094Z" fill="#E55121"/><path d="M918.656 300.438 909.75 300.438 909.75 275.5 918.656 275.5C919.966 275.504 921.027 276.565 921.031 277.875L921.031 298.062C921.027 299.373 919.966 300.434 918.656 300.438Z" fill="#E55121"/></g></svg>