<svg width="1915" height="296" xmlns="http://www.w3.org/2000/svg" xmlns:xlink="http://www.w3.org/1999/xlink" overflow="hidden"><defs><clipPath id="clip0"><rect x="1243" y="925" width="1915" height="296"/></clipPath></defs><g clip-path="url(#clip0)" transform="translate(-1243 -925)"><path d="M1374.5 1091.18C1481.57 1145.68 1588.63 1200.17 1700.1 1213.34 1811.57 1226.52 1941.37 1207.36 2043.3 1170.23 2145.23 1133.1 2228.83 1030.1 2311.7 990.578 2394.57 951.055 2462.77 940.875 2540.5 933.09 2618.23 925.305 2704.77 926.502 2778.1 943.868 2851.43 961.235 2915.97 999.261 2980.5 1037.29" stroke="#000000" stroke-width="6.875" stroke-miterlimit="8" stroke-dasharray="27.5 20.625" fill="none" fill-rule="evenodd"/><path d="M1243 1079.5C1243 1025.65 1286.65 982 1340.5 982 1394.35 982 1438 1025.65 1438 1079.5 1438 1133.35 1394.35 1177 1340.5 1177 1286.65 1177 1243 1133.35 1243 1079.5Z" fill="#876BDE" fill-rule="evenodd"/><text fill="#FFFFFF" font-family="Calibri,Calibri_MSFontService,sans-serif" font-weight="700" font-size="92" transform="matrix(1 0 0 1 1316.95 1113)">1</text><path d="M2959.5 1078C2959.5 1024.15 3003.15 980.5 3057 980.5 3110.85 980.5 3154.5 1024.15 3154.5 1078 3154.5 1131.85 3110.85 1175.5 3057 1175.5 3003.15 1175.5 2959.5 1131.85 2959.5 1078Z" stroke="#876BDE" stroke-width="6.875" stroke-miterlimit="8" fill="#876BDE" fill-rule="evenodd"/><text fill="#FFFFFF" font-family="Calibri,Calibri_MSFontService,sans-serif" font-weight="700" font-size="92" transform="matrix(1 0 0 1 3033.06 1112)">3</text><path d="M2101.5 1080C2101.5 1026.15 2145.15 982.5 2199 982.5 2252.85 982.5 2296.5 1026.15 2296.5 1080 2296.5 1133.85 2252.85 1177.5 2199 1177.5 2145.15 1177.5 2101.5 1133.85 2101.5 1080Z" stroke="#876BDE" stroke-width="6.875" stroke-miterlimit="8" fill="#876BDE" fill-rule="evenodd"/><text fill="#FFFFFF" font-family="Calibri,Calibri_MSFontService,sans-serif" font-weight="700" font-size="92" transform="matrix(1 0 0 1 2175 1113)">2</text></g></svg>