<svg width="57" height="57" xmlns="http://www.w3.org/2000/svg" xmlns:xlink="http://www.w3.org/1999/xlink" overflow="hidden"><defs><clipPath id="clip0"><rect x="730" y="262" width="57" height="57"/></clipPath></defs><g clip-path="url(#clip0)" transform="translate(-730 -262)"><path d="M782.25 289.906C782.25 287.947 780.647 286.344 778.688 286.344L767.406 286.344C766.456 286.344 765.684 285.572 765.625 284.622 765.684 283.553 767.406 281.416 767.406 273.281 767.406 271.322 765.803 269.719 763.844 269.719 761.884 269.719 760.281 271.322 760.281 273.281 760.281 282.306 749.772 287.413 749.594 287.531L749.594 306.531C753.809 306.531 754.106 311.281 762.062 311.281 764.734 311.281 772.75 311.281 772.75 311.281 774.709 311.281 776.312 309.678 776.312 307.719 776.312 306.769 775.956 305.938 775.362 305.344 775.481 305.344 775.6 305.344 775.719 305.344 777.678 305.344 779.281 303.741 779.281 301.781 779.281 300.831 778.925 299.941 778.272 299.288 779.875 298.931 781.062 297.506 781.062 295.844 781.062 294.834 780.647 293.884 779.934 293.231 781.3 292.756 782.25 291.45 782.25 289.906Z" fill="#876BDE"/><path d="M743.656 284.562 734.75 284.562 734.75 309.5 743.656 309.5C744.963 309.5 746.031 308.431 746.031 307.125L746.031 286.938C746.031 285.631 744.963 284.562 743.656 284.562Z" fill="#876BDE"/></g></svg>