<svg width="256" height="256" viewBox="0 0 256 256" fill="none" xmlns="http://www.w3.org/2000/svg">
<rect width="256" height="256" rx="5" fill="white"/>
<path d="M32.0154 193V62.0909H55.7299V173.121H113.386V193H32.0154ZM133.969 193V62.0909H183.059C193.116 62.0909 201.554 63.9659 208.372 67.7159C215.233 71.4659 220.41 76.6222 223.905 83.1847C227.442 89.7045 229.21 97.1193 229.21 105.429C229.21 113.824 227.442 121.281 223.905 127.801C220.368 134.321 215.148 139.456 208.244 143.206C201.341 146.913 192.839 148.767 182.74 148.767H150.204V129.271H179.544C185.425 129.271 190.24 128.249 193.99 126.203C197.74 124.158 200.51 121.345 202.3 117.766C204.132 114.186 205.048 110.074 205.048 105.429C205.048 100.784 204.132 96.6932 202.3 93.1562C200.51 89.6193 197.719 86.8707 193.926 84.9105C190.176 82.9077 185.339 81.9062 179.416 81.9062H157.683V193H133.969Z" fill="#876BDE"/>
</svg>
